# xmcd CD database file
#
# Track frame offsets:
#	150
#	29058
#	52311
#	91489
#	104288
#	130812
#	175010
#	210962
#	238365
#
# Disc length: 3584 seconds
#
# Revision: 1
# Processed by: cddbd v1.5.2PL0 Copyright (c) Steve Scherf et al.
# Submitted via: CDex 1.51
#
DISCID=7f0dfe09
DTITLE=Rory Gallagher - Live In Europe
DYEAR=1972
DGENRE=Blues
TTITLE0=Messin' With The Kid
TTITLE1=Laundromat
TTITLE2=I Could've Had Religion
TTITLE3=Pistol Slapper Blues
TTITLE4=Going To My Home Town
TTITLE5=In Your Town
TTITLE6=What In The World
TTITLE7=Hoodoo Man
TTITLE8=Bullfrog Blues
EXTD=YEAR: 1972
EXTT0=
EXTT1=
EXTT2=
EXTT3=
EXTT4=
EXTT5=
EXTT6=
EXTT7=
EXTT8=
PLAYORDER=
